<svg version="1.1" id="Layer_1" xmlns="http://www.w3.org/2000/svg" xmlns:xlink="http://www.w3.org/1999/xlink" x="0px" y="0px"
	 width="100%" viewBox="0 0 225 225" enable-background="new 0 0 225 225" xml:space="preserve">
<path fill="#07080A" opacity="1.000000" stroke="none" 
	d="
M156.000000,226.000000 
	C104.000000,226.000000 52.500008,226.000000 1.000007,226.000000 
	C1.000005,151.000000 1.000005,76.000015 1.000002,1.000017 
	C75.999992,1.000011 150.999985,1.000011 225.999969,1.000006 
	C225.999985,75.999985 225.999985,150.999969 226.000000,225.999969 
	C202.833328,226.000000 179.666672,226.000000 156.000000,226.000000 
M100.953621,149.083542 
	C100.891953,138.753250 100.830276,128.422958 101.263634,117.793060 
	C100.893173,117.196388 100.522713,116.599716 99.959091,115.368736 
	C99.928230,114.929909 99.897377,114.491081 100.344887,113.726173 
	C99.905304,113.151016 99.465721,112.575859 98.574066,111.500458 
	C90.424149,98.689415 69.752769,97.700920 58.621849,109.741470 
	C60.583797,112.080551 62.560242,114.436913 64.578041,116.842583 
	C70.715927,111.656296 77.189476,109.221657 84.691345,112.199898 
	C88.376770,113.663017 89.706223,116.775200 89.403839,120.239952 
	C81.886826,121.491310 74.403961,122.118141 67.288849,124.079193 
	C58.533497,126.492325 55.042385,132.435928 56.037544,140.962372 
	C56.755398,147.112900 60.878128,150.522415 66.085861,153.667511 
	C66.749077,153.711914 67.412292,153.756332 68.868340,153.779114 
	C69.913406,153.920898 70.958481,154.062698 72.176010,154.878174 
	C73.782982,154.648132 75.389961,154.418091 77.756668,154.004623 
	C80.744759,152.968658 83.732857,151.932693 87.614243,150.956772 
	C88.509460,150.971436 89.404686,150.986099 90.708549,151.342392 
	C90.817589,151.861053 90.926628,152.379730 91.185654,153.690643 
	C94.506828,154.022781 97.828011,154.354904 101.149185,154.687027 
	C101.149818,154.143845 101.150452,153.600647 101.418327,152.546097 
	C101.476288,152.362717 101.534256,152.179337 102.074867,151.823624 
	C101.767342,151.216766 101.459816,150.609924 100.953621,149.083542 
M165.915695,131.805283 
	C177.673477,131.805283 189.431259,131.805283 201.056625,131.805283 
	C203.659500,118.246216 196.549469,105.599823 184.960968,102.314423 
	C171.395065,98.468414 157.523117,105.361595 152.931305,118.230446 
	C148.052383,131.903946 153.784225,146.509354 166.094925,152.020767 
	C176.297974,156.588623 193.713226,154.698563 199.355423,143.008682 
	C196.733994,141.346771 194.093918,139.673019 191.491928,138.023422 
	C179.914932,147.782547 167.503342,145.968750 164.327179,133.754990 
	C164.551239,133.175919 164.775299,132.596848 165.915695,131.805283 
M144.085495,110.903145 
	C148.410355,107.790298 152.735214,104.677444 157.426834,101.300613 
	C153.995178,97.671646 150.869995,94.366753 147.774292,91.093056 
	C143.564560,96.035042 139.638931,100.643501 135.151993,104.734703 
	C134.910904,103.892891 134.868988,102.452568 134.399704,102.296371 
	C120.952232,97.820824 107.536278,104.218674 104.924873,116.958527 
	C102.984047,126.426979 105.949966,134.057327 114.045097,139.842880 
	C113.074661,140.407806 112.519386,140.742126 111.954002,141.058380 
	C108.406387,143.042725 105.611526,145.468475 106.619766,150.129440 
	C107.612061,154.716736 110.778618,156.959137 115.151375,157.119324 
	C119.090790,157.263611 123.054062,156.544907 127.011414,156.477615 
	C130.278885,156.422043 133.715668,156.194733 136.782440,157.073227 
	C140.475540,158.131149 141.274277,162.330719 138.557678,165.083130 
	C137.231110,166.427170 135.327972,167.419510 133.504333,168.018341 
	C125.205727,170.743393 117.963608,167.622696 110.938240,163.181549 
	C108.894905,166.155640 107.042427,168.851913 105.202179,171.530396 
	C114.861984,180.330521 134.325455,181.456360 144.360291,173.778091 
	C149.543640,169.812012 151.946762,164.543869 150.495102,157.995209 
	C149.026474,151.370117 144.585693,147.476181 138.013519,146.906067 
	C133.126160,146.482132 128.134155,147.328064 123.185394,147.522888 
	C120.609138,147.624313 118.025604,147.540741 115.445358,147.540741 
	C115.385628,146.700577 115.325905,145.860413 115.266174,145.020248 
	C119.697479,144.317307 124.107880,143.414810 128.563919,142.948029 
	C143.225937,141.412231 151.930283,127.371681 146.443619,113.768143 
	C146.083023,112.874123 144.793167,112.354897 144.085495,110.903145 
M25.918432,136.496155 
	C25.918432,141.926025 25.918432,147.355896 25.918432,152.872040 
	C29.885115,152.872040 33.354027,152.872040 36.782036,152.872040 
	C36.923779,152.421295 37.105576,152.111160 37.106720,151.800369 
	C37.134815,144.143600 37.136864,136.486740 37.157673,128.829926 
	C37.192421,116.046631 42.054623,111.406853 55.092907,112.131699 
	C55.341591,108.890190 55.591076,105.638199 55.857601,102.164139 
	C48.159245,100.014282 42.312981,102.692139 37.190258,108.026627 
	C36.703117,106.129555 36.299839,104.559067 35.888588,102.957535 
	C32.442093,102.957535 29.152472,102.957535 25.918461,102.957535 
	C25.918461,113.934975 25.918461,124.716019 25.918432,136.496155 
M99.180634,72.457390 
	C102.052330,62.120762 99.459137,53.894886 91.935463,51.203381 
	C83.333076,48.125973 74.396873,49.417873 65.666954,49.540642 
	C65.666954,60.607269 65.666954,71.021629 65.666954,82.154984 
	C73.225243,81.782173 80.483009,81.581161 87.712112,81.014458 
	C92.846771,80.611946 96.783073,78.056160 99.180634,72.457390 
M105.584190,68.484810 
	C105.584190,72.790016 105.584190,77.095222 105.584190,81.445480 
	C108.235130,81.445480 110.435181,81.445480 112.966644,81.445480 
	C112.966644,77.172729 112.966644,73.261688 112.966644,68.826439 
	C121.443115,73.665810 129.435516,78.228813 137.387726,82.768867 
	C139.278351,76.996071 136.799271,74.150597 132.008743,72.130310 
	C128.339554,70.582932 125.002296,68.248520 120.255760,65.545761 
	C125.510277,62.564270 129.170166,59.953770 133.224258,58.323750 
	C138.179047,56.331593 138.582779,53.126842 137.312256,48.394108 
	C129.109680,53.081764 121.260818,57.567276 112.644974,62.491112 
	C112.644974,57.612679 112.644974,53.572556 112.644974,49.705822 
	C110.012794,49.705822 107.941986,49.705822 105.584236,49.705822 
	C105.584236,55.869598 105.584236,61.680374 105.584190,68.484810 
M35.847462,76.411591 
	C38.071339,71.571861 40.295212,66.732132 42.519089,61.892403 
	C43.131493,61.938370 43.743900,61.984333 44.356304,62.030300 
	C46.591290,66.744804 49.274479,71.307159 50.940464,76.214813 
	C52.758228,81.569580 55.890308,82.892601 61.456364,81.229279 
	C55.708633,69.861267 50.064770,58.698689 44.420906,47.536110 
	C43.741180,47.592854 43.061451,47.649593 42.381725,47.706337 
	C36.769421,58.889050 31.157114,70.071762 25.418585,81.505974 
	C30.386816,82.208191 34.376045,82.568077 35.847462,76.411591 
M150.419449,55.999615 
	C144.805893,58.888847 139.192337,61.778080 133.578766,64.667313 
	C133.660324,65.370026 133.741867,66.072731 133.823410,66.775444 
	C144.325485,72.013023 154.827560,77.250603 165.456284,82.551338 
	C167.269730,77.207352 165.928604,74.541145 161.375366,72.876419 
	C156.650055,71.148781 152.205170,68.654114 147.637650,66.494896 
	C147.639954,65.890511 147.642258,65.286133 147.644562,64.681747 
	C152.342499,62.453903 156.922256,59.911808 161.772034,58.087662 
	C166.508774,56.306034 166.986572,53.306473 165.497757,48.487499 
	C160.528046,50.969013 155.810852,53.324429 150.419449,55.999615 
z"/>
<path fill="#F8F8F8" opacity="1.000000" stroke="none" 
	d="
M143.935562,111.661346 
	C144.793167,112.354897 146.083023,112.874123 146.443619,113.768143 
	C151.930283,127.371681 143.225937,141.412231 128.563919,142.948029 
	C124.107880,143.414810 119.697479,144.317307 115.266174,145.020248 
	C115.325905,145.860413 115.385628,146.700577 115.445358,147.540741 
	C118.025604,147.540741 120.609138,147.624313 123.185394,147.522888 
	C128.134155,147.328064 133.126160,146.482132 138.013519,146.906067 
	C144.585693,147.476181 149.026474,151.370117 150.495102,157.995209 
	C151.946762,164.543869 149.543640,169.812012 144.360291,173.778091 
	C134.325455,181.456360 114.861984,180.330521 105.202179,171.530396 
	C107.042427,168.851913 108.894905,166.155640 110.938240,163.181549 
	C117.963608,167.622696 125.205727,170.743393 133.504333,168.018341 
	C135.327972,167.419510 137.231110,166.427170 138.557678,165.083130 
	C141.274277,162.330719 140.475540,158.131149 136.782440,157.073227 
	C133.715668,156.194733 130.278885,156.422043 127.011414,156.477615 
	C123.054062,156.544907 119.090790,157.263611 115.151375,157.119324 
	C110.778618,156.959137 107.612061,154.716736 106.619766,150.129440 
	C105.611526,145.468475 108.406387,143.042725 111.954002,141.058380 
	C112.519386,140.742126 113.074661,140.407806 114.045097,139.842880 
	C105.949966,134.057327 102.984047,126.426979 104.924873,116.958527 
	C107.536278,104.218674 120.952232,97.820824 134.399704,102.296371 
	C134.868988,102.452568 134.910904,103.892891 135.210663,105.222130 
	C134.687424,106.776611 134.105545,107.843674 133.131714,108.752472 
	C132.458298,109.043701 132.176834,109.493187 131.945526,109.957924 
	C131.995667,109.973183 131.913193,109.908440 131.560364,110.000900 
	C130.795578,110.313866 130.348572,110.774292 129.976761,110.719978 
	C119.205238,109.146217 112.800461,116.954636 116.663948,126.993179 
	C118.539856,131.867371 122.607445,134.463654 127.482315,133.898422 
	C132.108032,133.362061 135.479706,130.110214 136.067688,125.025543 
	C136.406067,122.099503 136.059830,119.094299 136.343872,115.998077 
	C139.089172,114.468063 141.512375,113.064705 143.935562,111.661346 
z"/>
<path fill="#F8F8F8" opacity="1.000000" stroke="none" 
	d="
M163.782059,134.088638 
	C167.503342,145.968750 179.914932,147.782547 191.491928,138.023422 
	C194.093918,139.673019 196.733994,141.346771 199.355423,143.008682 
	C193.713226,154.698563 176.297974,156.588623 166.094925,152.020767 
	C153.784225,146.509354 148.052383,131.903946 152.931305,118.230446 
	C157.523117,105.361595 171.395065,98.468414 184.960968,102.314423 
	C196.549469,105.599823 203.659500,118.246216 201.056625,131.805283 
	C189.431259,131.805283 177.673477,131.805283 165.129944,131.812851 
	C164.156799,132.576492 163.969421,133.332565 163.782059,134.088638 
M164.958115,122.822922 
	C172.971664,122.783493 180.985214,122.744064 189.494629,122.881859 
	C189.602432,122.587219 189.710236,122.292580 189.931488,121.277428 
	C187.371521,113.506401 184.298126,110.923279 177.540375,110.862953 
	C170.708344,110.801964 166.070496,114.082764 163.281509,120.964722 
	C163.531693,121.543869 163.781891,122.123016 164.958115,122.822922 
z"/>
<path fill="#F8F8F8" opacity="1.000000" stroke="none" 
	d="
M66.001984,153.080368 
	C60.878128,150.522415 56.755398,147.112900 56.037544,140.962372 
	C55.042385,132.435928 58.533497,126.492325 67.288849,124.079193 
	C74.403961,122.118141 81.886826,121.491310 89.403839,120.239952 
	C89.706223,116.775200 88.376770,113.663017 84.691345,112.199898 
	C77.189476,109.221657 70.715927,111.656296 64.578041,116.842583 
	C62.560242,114.436913 60.583797,112.080551 58.621849,109.741470 
	C69.752769,97.700920 90.424149,98.689415 98.781113,112.045624 
	C99.280945,113.077942 99.573730,113.565094 99.866524,114.052254 
	C99.897377,114.491081 99.928230,114.929909 99.999741,115.971069 
	C100.283119,117.079819 100.525856,117.586243 100.768600,118.092659 
	C100.830276,128.422958 100.891953,138.753250 101.005615,149.895844 
	C101.235802,151.137405 101.414009,151.566681 101.592216,151.995956 
	C101.534256,152.179337 101.476288,152.362717 100.821602,152.795242 
	C97.161804,152.995728 94.098740,152.947067 91.035675,152.898407 
	C90.926628,152.379730 90.817589,151.861053 90.521347,150.811371 
	C90.186943,149.650116 90.039726,149.019897 89.892502,148.389679 
	C88.835320,149.225357 87.778130,150.061050 86.720947,150.896744 
	C83.732857,151.932693 80.744759,152.968658 76.961624,154.053253 
	C74.778900,154.136093 73.391228,154.170288 72.003548,154.204483 
	C70.958481,154.062698 69.913406,153.920898 68.286682,153.562729 
	C67.137352,153.257690 66.569664,153.169022 66.001984,153.080368 
M87.960129,129.921906 
	C82.441185,130.777435 76.717117,130.993118 71.463814,132.677246 
	C66.676964,134.211823 66.072807,140.166962 69.733170,143.067886 
	C73.163033,145.786148 80.061646,145.668030 84.302567,142.818451 
	C88.452377,140.030075 90.178230,135.143646 87.960129,129.921906 
z"/>
<path fill="#FBFBFB" opacity="1.000000" stroke="none" 
	d="
M25.918446,135.996613 
	C25.918461,124.716019 25.918461,113.934975 25.918461,102.957535 
	C29.152472,102.957535 32.442093,102.957535 35.888588,102.957535 
	C36.299839,104.559067 36.703117,106.129555 37.190258,108.026627 
	C42.312981,102.692139 48.159245,100.014282 55.857601,102.164139 
	C55.591076,105.638199 55.341591,108.890190 55.092907,112.131699 
	C42.054623,111.406853 37.192421,116.046631 37.157673,128.829926 
	C37.136864,136.486740 37.134815,144.143600 37.106720,151.800369 
	C37.105576,152.111160 36.923779,152.421295 36.782036,152.872040 
	C33.354027,152.872040 29.885115,152.872040 25.918432,152.872040 
	C25.918432,147.355896 25.918432,141.926025 25.918446,135.996613 
z"/>
<path fill="#EFEFEF" opacity="1.000000" stroke="none" 
	d="
M99.078568,72.829193 
	C96.783073,78.056160 92.846771,80.611946 87.712112,81.014458 
	C80.483009,81.581161 73.225243,81.782173 65.666954,82.154984 
	C65.666954,71.021629 65.666954,60.607269 65.666954,49.540642 
	C74.396873,49.417873 83.333076,48.125973 91.935463,51.203381 
	C99.459137,53.894886 102.052330,62.120762 99.078568,72.829193 
M72.967636,75.569466 
	C73.305748,75.662682 73.643867,75.755898 74.874481,75.999718 
	C77.583885,75.945625 80.293297,75.891541 83.566353,75.957451 
	C84.100975,75.776840 84.635605,75.596237 85.905212,75.401627 
	C87.637871,73.947655 89.370537,72.493690 91.595917,70.706581 
	C91.693268,70.138496 91.790627,69.570404 92.133316,68.146698 
	C92.725067,59.845043 91.243393,57.240948 84.605072,55.324051 
	C83.737663,55.272984 82.870262,55.221916 81.121895,55.027653 
	C78.743607,55.075123 76.365311,55.122593 73.424637,55.093166 
	C73.299538,55.393623 73.174431,55.694084 72.865189,56.915943 
	C72.926575,62.945320 72.987961,68.974693 72.967636,75.569466 
z"/>
<path fill="#F4F4F4" opacity="1.000000" stroke="none" 
	d="
M105.584213,67.987976 
	C105.584236,61.680374 105.584236,55.869598 105.584236,49.705822 
	C107.941986,49.705822 110.012794,49.705822 112.644974,49.705822 
	C112.644974,53.572556 112.644974,57.612679 112.644974,62.491112 
	C121.260818,57.567276 129.109680,53.081764 137.312256,48.394108 
	C138.582779,53.126842 138.179047,56.331593 133.224258,58.323750 
	C129.170166,59.953770 125.510277,62.564270 120.255760,65.545761 
	C125.002296,68.248520 128.339554,70.582932 132.008743,72.130310 
	C136.799271,74.150597 139.278351,76.996071 137.387726,82.768867 
	C129.435516,78.228813 121.443115,73.665810 112.966644,68.826439 
	C112.966644,73.261688 112.966644,77.172729 112.966644,81.445480 
	C110.435181,81.445480 108.235130,81.445480 105.584190,81.445480 
	C105.584190,77.095222 105.584190,72.790016 105.584213,67.987976 
z"/>
<path fill="#F2F2F2" opacity="1.000000" stroke="none" 
	d="
M35.653870,76.744652 
	C34.376045,82.568077 30.386816,82.208191 25.418585,81.505974 
	C31.157114,70.071762 36.769421,58.889050 42.381725,47.706337 
	C43.061451,47.649593 43.741180,47.592854 44.420906,47.536110 
	C50.064770,58.698689 55.708633,69.861267 61.456364,81.229279 
	C55.890308,82.892601 52.758228,81.569580 50.940464,76.214813 
	C49.274479,71.307159 46.591290,66.744804 44.356304,62.030300 
	C43.743900,61.984333 43.131493,61.938370 42.519089,61.892403 
	C40.295212,66.732132 38.071339,71.571861 35.653870,76.744652 
z"/>
<path fill="#AE1E2E" opacity="1.000000" stroke="none" 
	d="
M150.756561,55.839729 
	C155.810852,53.324429 160.528046,50.969013 165.497757,48.487499 
	C166.986572,53.306473 166.508774,56.306034 161.772034,58.087662 
	C156.922256,59.911808 152.342499,62.453903 147.644562,64.681747 
	C147.642258,65.286133 147.639954,65.890511 147.637650,66.494896 
	C152.205170,68.654114 156.650055,71.148781 161.375366,72.876419 
	C165.928604,74.541145 167.269730,77.207352 165.456284,82.551338 
	C154.827560,77.250603 144.325485,72.013023 133.823410,66.775444 
	C133.741867,66.072731 133.660324,65.370026 133.578766,64.667313 
	C139.192337,61.778080 144.805893,58.888847 150.756561,55.839729 
z"/>
<path fill="#AE1E2E" opacity="1.000000" stroke="none" 
	d="
M144.010529,111.282242 
	C141.512375,113.064705 139.089172,114.468063 135.988251,115.975616 
	C132.143112,117.788155 128.975723,119.496483 125.413940,121.417534 
	C127.838844,117.123436 129.876022,113.515938 131.913193,109.908440 
	C131.913193,109.908440 131.995667,109.973183 132.305023,109.990089 
	C132.917480,109.641579 133.220566,109.276154 133.523651,108.910728 
	C134.105545,107.843674 134.687424,106.776611 135.491302,105.480759 
	C139.638931,100.643501 143.564560,96.035042 147.774292,91.093056 
	C150.869995,94.366753 153.995178,97.671646 157.426834,101.300613 
	C152.735214,104.677444 148.410355,107.790298 144.010529,111.282242 
z"/>
<path fill="#040404" opacity="1.000000" stroke="none" 
	d="
M91.110657,153.294525 
	C94.098740,152.947067 97.161804,152.995728 100.687973,153.050934 
	C101.150452,153.600647 101.149818,154.143845 101.149185,154.687027 
	C97.828011,154.354904 94.506828,154.022781 91.110657,153.294525 
z"/>
<path fill="#040404" opacity="1.000000" stroke="none" 
	d="
M72.089783,154.541321 
	C73.391228,154.170288 74.778900,154.136093 76.581757,154.144958 
	C75.389961,154.418091 73.782982,154.648132 72.089783,154.541321 
z"/>
<path fill="#040404" opacity="1.000000" stroke="none" 
	d="
M87.167587,150.926758 
	C87.778130,150.061050 88.835320,149.225357 89.892502,148.389679 
	C90.039726,149.019897 90.186943,149.650116 90.317032,150.640549 
	C89.404686,150.986099 88.509460,150.971436 87.167587,150.926758 
z"/>
<path fill="#040404" opacity="1.000000" stroke="none" 
	d="
M66.043922,153.373932 
	C66.569664,153.169022 67.137352,153.257690 67.890274,153.573547 
	C67.412292,153.756332 66.749077,153.711914 66.043922,153.373932 
z"/>
<path fill="#040404" opacity="1.000000" stroke="none" 
	d="
M101.833542,151.909790 
	C101.414009,151.566681 101.235802,151.137405 101.104942,150.355591 
	C101.459816,150.609924 101.767342,151.216766 101.833542,151.909790 
z"/>
<path fill="#020202" opacity="1.000000" stroke="none" 
	d="
M164.054626,133.921814 
	C163.969421,133.332565 164.156799,132.576492 164.671783,131.919098 
	C164.775299,132.596848 164.551239,133.175919 164.054626,133.921814 
z"/>
<path fill="#040404" opacity="1.000000" stroke="none" 
	d="
M101.016113,117.942856 
	C100.525856,117.586243 100.283119,117.079819 100.096313,116.288216 
	C100.522713,116.599716 100.893173,117.196388 101.016113,117.942856 
z"/>
<path fill="#040404" opacity="1.000000" stroke="none" 
	d="
M100.105705,113.889214 
	C99.573730,113.565094 99.280945,113.077942 99.007141,112.295746 
	C99.465721,112.575859 99.905304,113.151016 100.105705,113.889214 
z"/>
<path fill="#0A0A0C" opacity="1.000000" stroke="none" 
	d="
M131.560364,110.000900 
	C129.876022,113.515938 127.838844,117.123436 125.413940,121.417534 
	C128.975723,119.496483 132.143112,117.788155 135.666138,116.102272 
	C136.059830,119.094299 136.406067,122.099503 136.067688,125.025543 
	C135.479706,130.110214 132.108032,133.362061 127.482315,133.898422 
	C122.607445,134.463654 118.539856,131.867371 116.663948,126.993179 
	C112.800461,116.954636 119.205238,109.146217 129.976761,110.719978 
	C130.348572,110.774292 130.795578,110.313866 131.560364,110.000900 
z"/>
<path fill="#0A0A0C" opacity="1.000000" stroke="none" 
	d="
M133.131714,108.752472 
	C133.220566,109.276154 132.917480,109.641579 132.254883,109.974831 
	C132.176834,109.493187 132.458298,109.043701 133.131714,108.752472 
z"/>
<path fill="#0A0B0C" opacity="1.000000" stroke="none" 
	d="
M163.807358,120.577637 
	C166.070496,114.082764 170.708344,110.801964 177.540375,110.862953 
	C184.298126,110.923279 187.371521,113.506401 189.697464,121.704185 
	C189.221848,122.251938 189.066956,122.443169 188.998764,122.704636 
	C180.985214,122.744064 172.971664,122.783493 164.484222,122.406036 
	C163.942673,121.518646 163.875015,121.048141 163.807358,120.577637 
z"/>
<path fill="#1F1F1F" opacity="1.000000" stroke="none" 
	d="
M163.544434,120.771179 
	C163.875015,121.048141 163.942673,121.518646 164.021210,122.345657 
	C163.781891,122.123016 163.531693,121.543869 163.544434,120.771179 
z"/>
<path fill="#1F1F1F" opacity="1.000000" stroke="none" 
	d="
M189.246704,122.793243 
	C189.066956,122.443169 189.221848,122.251938 189.640747,122.064438 
	C189.710236,122.292580 189.602432,122.587219 189.246704,122.793243 
z"/>
<path fill="#0B0C0D" opacity="1.000000" stroke="none" 
	d="
M88.390457,129.973923 
	C90.178230,135.143646 88.452377,140.030075 84.302567,142.818451 
	C80.061646,145.668030 73.163033,145.786148 69.733170,143.067886 
	C66.072807,140.166962 66.676964,134.211823 71.463814,132.677246 
	C76.717117,130.993118 82.441185,130.777435 88.390457,129.973923 
z"/>
<path fill="#07080A" opacity="1.000000" stroke="none" 
	d="
M91.103195,71.039719 
	C89.370537,72.493690 87.637871,73.947655 85.397446,75.139572 
	C84.260681,75.197495 83.631691,75.517471 83.002701,75.837448 
	C80.293297,75.891541 77.583885,75.945625 74.318794,75.737877 
	C73.571373,75.248886 73.333450,75.091568 73.049347,75.004074 
	C72.987961,68.974693 72.926575,62.945320 73.152039,56.365913 
	C73.687035,55.656147 73.869743,55.440872 73.987022,55.170063 
	C76.365311,55.122593 78.743607,55.075123 81.626755,55.420025 
	C83.118340,55.798584 84.105064,55.784767 85.091782,55.770950 
	C91.243393,57.240948 92.725067,59.845043 91.723969,68.614517 
	C91.244148,69.734795 91.173668,70.387260 91.103195,71.039719 
z"/>
<path fill="#050505" opacity="1.000000" stroke="none" 
	d="
M84.848427,55.547501 
	C84.105064,55.784767 83.118340,55.798584 82.067238,55.491623 
	C82.870262,55.221916 83.737663,55.272984 84.848427,55.547501 
z"/>
<path fill="#050505" opacity="1.000000" stroke="none" 
	d="
M91.349556,70.873154 
	C91.173668,70.387260 91.244148,69.734795 91.601303,69.042328 
	C91.790627,69.570404 91.693268,70.138496 91.349556,70.873154 
z"/>
<path fill="#050505" opacity="1.000000" stroke="none" 
	d="
M83.284531,75.897446 
	C83.631691,75.517471 84.260681,75.197495 85.029953,75.146576 
	C84.635605,75.596237 84.100975,75.776840 83.284531,75.897446 
z"/>
<path fill="#050505" opacity="1.000000" stroke="none" 
	d="
M73.705826,55.131615 
	C73.869743,55.440872 73.687035,55.656147 73.244110,55.905212 
	C73.174431,55.694084 73.299538,55.393623 73.705826,55.131615 
z"/>
<path fill="#050505" opacity="1.000000" stroke="none" 
	d="
M73.008492,75.286774 
	C73.333450,75.091568 73.571373,75.248886 73.872543,75.662575 
	C73.643867,75.755898 73.305748,75.662682 73.008492,75.286774 
z"/>
</svg>